<?xml version="1.0" standalone="no"?>
<!DOCTYPE svg PUBLIC "-//W3C//DTD SVG 20010904//EN"
 "http://www.w3.org/TR/2001/REC-SVG-20010904/DTD/svg10.dtd">
<svg version="1.0" xmlns="http://www.w3.org/2000/svg"
 width="320.000000pt" height="320.000000pt" viewBox="0 0 320.000000 320.000000"
 preserveAspectRatio="xMidYMid meet">
<metadata>
Created by potrace 1.11, written by Peter Selinger 2001-2013
</metadata>
<g transform="translate(0.000000,320.000000) scale(0.100000,-0.100000)"
fill="#000000" stroke="none">
<path d="M1370 2868 c-68 -35 -93 -90 -86 -189 l6 -76 -43 -6 c-80 -11 -218
-69 -307 -128 -93 -63 -198 -166 -256 -254 -20 -30 -39 -55 -41 -55 -2 0 -25
16 -50 35 -25 19 -60 37 -79 41 -128 24 -270 -237 -191 -353 25 -38 101 -79
164 -89 33 -5 43 -11 43 -25 0 -33 51 -183 84 -244 44 -83 129 -168 207 -205
35 -16 71 -30 79 -31 8 0 -7 -9 -34 -20 -164 -66 -215 -166 -146 -285 59 -103
178 -129 371 -80 52 13 123 35 158 50 35 14 65 25 65 23 1 -1 28 -42 61 -92
72 -109 240 -280 347 -353 42 -28 136 -84 210 -123 117 -63 141 -72 199 -77
80 -6 123 7 177 53 59 51 85 112 85 199 -1 39 -8 91 -17 115 -13 36 -14 46 -4
53 24 14 77 8 144 -17 78 -29 111 -31 185 -9 112 33 164 129 157 288 -5 105
-32 177 -92 244 -67 74 -200 106 -275 67 -29 -14 -31 -14 -31 2 -1 80 -146
246 -278 319 -2 1 12 51 31 111 92 284 87 472 -15 545 -27 19 -46 23 -100 23
-65 0 -69 -1 -107 -39 -23 -22 -44 -48 -47 -58 -7 -24 -24 -13 -24 15 0 34
-62 155 -108 213 -22 29 -71 74 -107 100 -58 43 -65 52 -60 74 3 14 8 57 11
95 6 83 -12 121 -69 148 -53 26 -161 23 -217 -5z"/>
</g>
</svg>
